<svg xmlns="http://www.w3.org/2000/svg" viewBox="0 0 25 25"><path fill="#ffffff" d="M0 12.5C0 5.6 5.6 0 12.5 0C19.4 0 25 5.6 25 12.5C25 19.4 19.4 25 12.5 25C5.6 25 0 19.4 0 12.5ZM13.33 13.61L15.6 13.61L15.94 10.98L13.33 10.98C13.33 9.97 13.33 9.41 13.33 9.3C13.33 8.54 13.54 8.02 14.63 8.02C14.73 8.02 15.19 8.02 16.03 8.02C16.03 6.6 16.03 5.82 16.03 5.66C15.79 5.63 14.96 5.56 14 5.56C11.98 5.56 10.61 6.78 10.61 9.04C10.61 9.17 10.61 9.81 10.61 10.98L8.33 10.98L8.33 13.61L10.61 13.61L10.61 20.37L13.33 20.37L13.33 13.61Z"/></svg>