<svg xmlns="http://www.w3.org/2000/svg" viewBox="0 0 25 25"><g><path fill="#000000" d="M0 12.5C0 5.6 5.6 0 12.5 0C19.4 0 25 5.6 25 12.5C25 19.4 19.4 25 12.5 25C5.6 25 0 19.4 0 12.5Z" /><path fill="#ffffff" d="M9.92 6.29C9.26 6.32 8.8 6.43 8.41 6.58C7.99 6.74 7.65 6.96 7.3 7.3C6.95 7.65 6.74 8 6.58 8.41C6.42 8.81 6.32 9.26 6.29 9.93C6.26 10.59 6.25 10.81 6.25 12.5C6.25 14.2 6.26 14.41 6.29 15.08C6.32 15.74 6.42 16.2 6.58 16.59C6.74 17.01 6.95 17.35 7.3 17.7C7.65 18.05 7.99 18.26 8.41 18.42C8.8 18.58 9.26 18.68 9.92 18.71C10.59 18.74 10.8 18.75 12.5 18.75C14.19 18.75 14.41 18.74 15.07 18.71C15.74 18.68 16.19 18.58 16.59 18.42C17 18.26 17.35 18.05 17.7 17.7C18.04 17.35 18.26 17.01 18.42 16.59C18.57 16.2 18.68 15.74 18.71 15.08C18.74 14.41 18.75 14.2 18.75 12.5C18.75 10.81 18.74 10.59 18.71 9.93C18.68 9.26 18.57 8.81 18.42 8.41C18.26 8 18.04 7.65 17.7 7.3C17.35 6.96 17 6.74 16.59 6.58C16.19 6.43 15.74 6.32 15.07 6.29C14.41 6.26 14.19 6.25 12.5 6.25C10.8 6.25 10.59 6.26 9.92 6.29ZM15.02 7.42C15.63 7.44 15.96 7.55 16.18 7.63C16.47 7.74 16.68 7.88 16.9 8.1C17.12 8.32 17.26 8.53 17.37 8.82C17.45 9.04 17.56 9.37 17.58 9.98C17.61 10.64 17.62 10.83 17.62 12.5C17.62 14.17 17.61 14.37 17.58 15.03C17.56 15.64 17.45 15.97 17.37 16.19C17.26 16.48 17.12 16.69 16.9 16.91C16.68 17.12 16.47 17.26 16.18 17.37C15.96 17.46 15.63 17.56 15.02 17.59C14.36 17.62 14.17 17.62 12.5 17.62C10.83 17.62 10.63 17.62 9.97 17.59C9.36 17.56 9.03 17.46 8.81 17.37C8.52 17.26 8.31 17.12 8.09 16.91C7.88 16.69 7.74 16.48 7.63 16.19C7.54 15.97 7.44 15.64 7.41 15.03C7.38 14.37 7.38 14.17 7.38 12.5C7.38 10.83 7.38 10.64 7.41 9.98C7.44 9.37 7.54 9.04 7.63 8.82C7.74 8.53 7.88 8.32 8.09 8.1C8.31 7.88 8.52 7.74 8.81 7.63C9.03 7.55 9.36 7.44 9.97 7.42C10.63 7.39 10.83 7.38 12.5 7.38C14.17 7.38 14.36 7.39 15.02 7.42Z" /><path fill="#ffffff" d="M10.42 12.5C10.42 11.35 11.35 10.42 12.5 10.42C13.65 10.42 14.58 11.35 14.58 12.5C14.58 13.65 13.65 14.58 12.5 14.58C11.35 14.58 10.42 13.65 10.42 12.5ZM9.29 12.5C9.29 14.27 10.73 15.71 12.5 15.71C14.27 15.71 15.71 14.27 15.71 12.5C15.71 10.73 14.27 9.29 12.5 9.29C10.73 9.29 9.29 10.73 9.29 12.5ZM16.58 9.17C16.58 9.58 16.25 9.92 15.83 9.92C15.42 9.92 15.08 9.58 15.08 9.17C15.08 8.75 15.42 8.42 15.83 8.42C16.25 8.42 16.58 8.75 16.58 9.17" /></g></svg>