<svg xmlns="http://www.w3.org/2000/svg" viewBox="0 0 25 25"><path fill="#ffffff" d="M23.66 11.83C23.96 17.87 19.18 23.02 12.99 23.33C6.8 23.63 1.53 18.98 1.23 12.94C0.93 6.9 5.71 1.75 11.9 1.44C18.1 1.13 23.37 5.79 23.66 11.83Z"></path><path fill="#000000" d="M0 12.5C0 19.52 5.61 25 12.5 25C19.38 25 25 19.38 25 12.5C25 5.61 19.38 0 12.5 0C5.47 0 0 5.47 0 12.5ZM17.27 18.53C17.13 18.53 16.99 18.53 16.85 18.39C14.6 17.13 11.93 16.85 10.25 16.99C8.28 16.99 6.88 17.41 6.74 17.41C6.32 17.55 5.75 17.27 5.75 16.85C5.61 16.43 5.89 15.87 6.32 15.87C6.32 15.87 8 15.44 10.11 15.3C11.37 15.3 12.64 15.3 13.76 15.59C15.16 15.87 16.57 16.29 17.69 16.99C17.97 17.13 18.11 17.69 17.97 18.11C17.83 18.39 17.55 18.53 17.27 18.53ZM18.68 15.3C18.53 15.3 18.39 15.3 18.11 15.16C15.44 13.62 12.35 13.34 10.25 13.48C7.86 13.48 6.18 13.9 6.18 13.9C5.61 14.04 5.05 13.76 4.91 13.2C4.77 12.78 5.05 12.21 5.61 11.93C5.75 11.93 7.58 11.37 10.11 11.37C11.65 11.37 13.06 11.37 14.46 11.65C16.15 11.93 17.69 12.5 19.1 13.34C19.66 13.76 19.8 14.32 19.52 14.74C19.38 15.02 18.96 15.3 18.68 15.3ZM19.94 11.65C13.48 7.86 5.33 10.11 5.19 10.11C4.49 10.25 3.79 9.97 3.65 9.27C3.51 8.56 3.79 7.86 4.49 7.72C4.63 7.72 6.88 7.02 9.97 7.02C11.79 7.02 13.62 7.02 15.3 7.44C17.41 7.86 19.38 8.56 21.06 9.55C21.62 9.83 21.91 10.67 21.48 11.23C21.34 11.51 20.92 11.79 20.5 11.79C20.22 11.79 20.08 11.79 19.94 11.65Z"></path></svg>