<svg xmlns="http://www.w3.org/2000/svg" viewBox="0 0 25 25"><g><path fill="#000000" d="M12.5 0C5.6 0 0 5.6 0 12.5C0 19.4 5.6 25 12.5 25C19.4 25 25 19.4 25 12.5C25 5.6 19.4 0 12.5 0Z" /><path fill="#ffffff" d="M10.71 18.76C15.64 18.76 18.34 14.5 18.34 10.81C18.34 10.69 18.34 10.57 18.33 10.45C18.86 10.06 19.31 9.57 19.67 9.01C19.19 9.23 18.67 9.38 18.13 9.45C18.68 9.1 19.11 8.55 19.31 7.9C18.79 8.22 18.22 8.45 17.61 8.58C17.12 8.04 16.42 7.7 15.65 7.7C14.17 7.7 12.97 8.95 12.97 10.49C12.97 10.71 12.99 10.92 13.04 11.13C10.81 11.01 8.83 9.9 7.51 8.21C7.28 8.62 7.14 9.1 7.14 9.61C7.14 10.58 7.62 11.44 8.34 11.94C7.9 11.92 7.48 11.8 7.12 11.59C7.12 11.6 7.12 11.61 7.12 11.62C7.12 12.98 8.05 14.1 9.27 14.36C9.05 14.42 8.81 14.46 8.57 14.46C8.39 14.46 8.23 14.44 8.06 14.41C8.4 15.52 9.39 16.33 10.57 16.35C9.65 17.1 8.49 17.54 7.24 17.54C7.02 17.54 6.81 17.53 6.6 17.5C7.78 18.3 9.19 18.76 10.71 18.76" /></g></svg>