<svg xmlns="http://www.w3.org/2000/svg" viewBox="0 0 25 25"><path fill="#ffffff" d="M12.5 25C5.6 25 0 19.4 0 12.5C0 5.6 5.6 0 12.5 0C19.4 0 25 5.6 25 12.5C25 19.4 19.4 25 12.5 25ZM18.08 7.77C16.97 7.47 12.5 7.47 12.5 7.47C12.5 7.47 8.03 7.47 6.92 7.77C6.31 7.94 5.82 8.42 5.66 9.04C5.36 10.16 5.36 12.5 5.36 12.5C5.36 12.5 5.36 14.84 5.66 15.96C5.82 16.58 6.31 17.07 6.92 17.23C8.03 17.53 12.5 17.53 12.5 17.53C12.5 17.53 16.97 17.53 18.08 17.23C18.69 17.07 19.18 16.58 19.34 15.96C19.64 14.84 19.64 12.5 19.64 12.5C19.64 12.5 19.64 10.16 19.34 9.04C19.18 8.42 18.69 7.94 18.08 7.77ZM11.04 10.38L14.77 12.5L11.04 14.62L11.04 10.38Z"/></svg>